<?xml version="1.0" standalone="no"?>
<!DOCTYPE svg PUBLIC "-//W3C//DTD SVG 20010904//EN"
 "http://www.w3.org/TR/2001/REC-SVG-20010904/DTD/svg10.dtd">
<svg version="1.0" xmlns="http://www.w3.org/2000/svg"
 width="984.000000pt" height="984.000000pt" viewBox="0 0 984.000000 984.000000"
 preserveAspectRatio="xMidYMid meet">
<metadata>
Created by potrace 1.14, written by Peter Selinger 2001-2017
</metadata>
<g transform="translate(0.000000,984.000000) scale(0.100000,-0.100000)"
fill="#000000" stroke="none">
<path d="M4891 9818 c-6 -16 -4 -28 6 -39 22 -26 41 -112 37 -166 -4 -39 -44
-189 -71 -263 -50 -137 -31 -314 41 -392 35 -37 55 -45 67 -26 12 19 11 58 -2
58 -5 0 -22 25 -36 56 -43 95 -38 165 29 379 36 114 37 117 42 207 5 100 -39
208 -87 208 -9 0 -22 -10 -26 -22z"/>
<path d="M4685 9694 c-14 -15 -14 -19 5 -51 11 -19 18 -38 15 -43 -3 -5 -1
-11 5 -15 6 -4 8 -9 6 -13 -2 -4 -7 -25 -10 -46 -10 -60 -18 -90 -29 -103 -5
-7 -7 -13 -3 -13 3 0 1 -12 -5 -27 -32 -83 -33 -200 -1 -264 26 -54 63 -77 87
-53 19 19 19 20 -3 52 -49 72 -50 135 -4 282 43 136 44 221 1 281 -23 33 -40
36 -64 13z"/>
<path d="M5102 9694 c-6 -11 -3 -33 10 -66 20 -54 19 -92 -5 -173 -56 -187
-62 -239 -31 -315 30 -74 74 -104 98 -67 9 14 5 27 -17 68 -25 43 -28 59 -26
112 2 34 9 73 16 87 7 14 13 33 13 43 0 10 5 28 12 40 24 45 31 166 12 220
-21 59 -63 85 -82 51z"/>
<path d="M4050 9585 c-10 -12 -10 -29 0 -82 7 -38 14 -77 15 -88 10 -61 15
-94 21 -125 4 -19 8 -45 8 -57 1 -13 4 -23 7 -23 3 0 6 -6 6 -12 0 -11 3 -33
18 -123 2 -11 6 -36 10 -55 29 -159 42 -246 37 -251 -4 -3 -48 -14 -99 -23
-50 -10 -100 -19 -110 -21 -10 -2 -18 -4 -18 -5 0 -1 -10 -3 -22 -6 -13 -2
-23 -2 -23 0 0 2 -21 82 -46 178 -55 207 -50 186 -59 225 -4 18 -15 39 -24 47
-16 14 -19 14 -39 -4 -18 -17 -19 -24 -11 -52 10 -34 39 -142 84 -315 26 -98
25 -112 -12 -113 -7 0 -33 -7 -59 -16 -26 -9 -59 -18 -72 -20 -14 -3 -33 -9
-44 -15 -10 -5 -18 -6 -18 -2 0 4 -5 2 -12 -5 -24 -24 -16 -42 -153 333 -42
116 -78 217 -80 227 -2 9 -11 30 -19 47 -9 17 -16 33 -16 36 0 3 -1 7 -1 10
-1 3 -3 10 -4 15 -1 6 -4 12 -5 15 -3 6 -5 11 -15 42 -8 26 -30 36 -57 27 -16
-5 -19 -12 -14 -34 4 -22 88 -259 123 -350 3 -8 7 -19 8 -25 2 -5 14 -39 28
-75 52 -136 110 -300 106 -303 -2 -2 -33 -14 -69 -27 -36 -13 -93 -36 -127
-51 l-61 -27 -15 31 c-173 373 -186 395 -208 390 -35 -10 -39 -34 -11 -93 14
-30 54 -114 88 -186 34 -72 65 -140 68 -151 6 -18 -8 -28 -111 -79 -65 -32
-120 -62 -122 -67 -3 -9 -61 76 -61 89 0 3 -8 18 -19 32 -10 15 -29 47 -43 72
-14 25 -48 85 -77 133 -28 49 -51 92 -51 97 0 5 -3 10 -7 12 -5 2 -15 17 -24
33 -9 17 -42 74 -73 128 -46 79 -61 97 -80 97 -38 0 -40 -36 -6 -92 17 -27 30
-53 30 -58 0 -6 4 -10 9 -10 5 0 14 -12 20 -27 6 -16 24 -50 41 -78 16 -27 33
-57 37 -65 4 -8 37 -66 75 -127 37 -62 64 -113 60 -113 -4 0 -2 -4 4 -8 5 -4
29 -39 51 -79 45 -79 47 -73 -27 -113 -25 -13 -47 -27 -50 -30 -3 -4 -21 -15
-40 -25 -19 -10 -37 -21 -40 -24 -3 -3 -15 -12 -27 -18 -19 -11 -24 -10 -33 7
-14 27 -221 321 -237 338 -18 18 -44 11 -53 -14 -6 -16 15 -52 100 -175 60
-84 116 -163 124 -174 9 -10 16 -24 15 -30 0 -5 -51 -47 -112 -92 -102 -76
-113 -81 -125 -65 -7 9 -20 26 -30 37 -9 11 -51 61 -92 110 -41 50 -77 92 -80
95 -3 3 -25 30 -50 60 -55 69 -63 78 -97 116 -15 16 -46 52 -67 80 -41 51 -84
94 -96 94 -12 0 -30 -24 -30 -40 0 -8 43 -67 96 -130 53 -63 113 -135 133
-159 20 -25 43 -52 51 -61 8 -9 33 -38 55 -65 22 -28 47 -57 55 -66 23 -24 94
-110 102 -124 5 -7 -11 -28 -40 -52 -26 -23 -72 -64 -102 -92 -30 -28 -57 -51
-60 -51 -3 0 -73 68 -155 150 -153 153 -186 175 -200 129 -8 -24 -12 -19 172
-202 l131 -131 -58 -60 c-32 -34 -75 -80 -96 -104 l-39 -43 -50 38 c-28 21
-54 43 -60 49 -5 6 -66 58 -135 115 -144 120 -177 147 -202 172 -10 9 -20 17
-23 17 -3 0 -19 12 -36 28 -102 89 -95 85 -118 72 -33 -17 -25 -46 27 -87 26
-21 52 -43 57 -49 6 -6 45 -39 88 -74 42 -34 77 -67 77 -71 0 -5 5 -9 11 -9 6
0 23 -11 37 -24 15 -14 72 -62 127 -108 55 -46 106 -89 113 -95 7 -7 18 -13
23 -13 15 0 10 -25 -9 -46 -9 -10 -48 -58 -85 -107 -43 -54 -73 -85 -80 -80
-13 7 -95 63 -112 76 -79 61 -220 153 -235 154 -34 3 -43 -31 -17 -61 13 -14
26 -26 31 -26 4 0 13 -6 21 -12 7 -7 72 -53 144 -103 72 -49 131 -93 131 -98
0 -8 -50 -88 -61 -97 -3 -3 -12 -16 -19 -29 -7 -14 -17 -30 -22 -35 -5 -6 -18
-26 -29 -44 l-20 -33 -32 19 c-52 32 -228 132 -287 165 -30 16 -67 38 -82 49
-14 10 -28 18 -31 18 -3 0 -55 30 -116 66 -86 51 -118 65 -136 60 -34 -9 -32
-40 4 -65 16 -12 34 -21 40 -21 6 0 11 -4 11 -9 0 -5 6 -11 12 -13 11 -2 184
-99 253 -141 57 -35 97 -58 160 -92 39 -21 77 -44 86 -51 8 -8 20 -14 25 -14
5 0 19 -9 32 -18 l24 -18 -36 -61 c-20 -34 -36 -64 -36 -68 0 -4 -9 -19 -19
-33 -18 -26 -23 -27 -98 -26 -73 2 -88 6 -202 58 -98 45 -126 54 -142 46 -34
-19 -23 -46 29 -71 26 -13 51 -22 55 -21 5 1 6 -1 4 -5 -3 -5 -145 -8 -316 -7
-224 1 -316 -2 -327 -11 -23 -16 -28 -79 -9 -95 17 -14 105 -31 105 -20 0 8
55 4 69 -5 6 -3 11 -2 11 2 0 9 117 9 126 0 3 -3 18 -2 34 3 18 5 32 4 39 -3
6 -6 11 -7 11 -1 0 5 11 9 25 9 14 0 25 -3 25 -7 0 -4 11 -3 24 2 13 5 27 6
30 3 7 -8 86 -10 86 -2 0 7 56 3 69 -6 6 -3 11 -3 11 2 0 10 91 10 107 0 6 -4
14 -3 17 2 4 6 18 6 35 1 15 -4 34 -4 42 0 7 5 21 4 31 -1 10 -5 18 -6 18 -2
0 4 20 8 45 8 25 0 45 -3 45 -7 0 -4 10 -4 23 0 27 9 48 9 64 -1 6 -4 14 -3
17 2 4 6 18 6 35 1 15 -4 34 -4 42 0 7 5 21 4 31 -1 10 -5 18 -6 18 -2 0 4 20
8 45 8 25 0 45 -2 45 -5 0 -3 14 -5 30 -5 17 0 30 3 30 6 0 7 56 3 69 -6 6 -3
11 -2 11 2 0 9 117 9 126 0 3 -3 18 -2 34 3 18 5 32 4 39 -3 6 -6 11 -7 11 -1
0 5 11 9 25 9 14 0 25 -3 25 -7 0 -4 11 -3 24 2 13 5 27 6 30 3 7 -8 86 -10
86 -2 0 7 56 3 69 -6 6 -3 11 -3 11 2 0 10 91 10 107 0 6 -4 14 -3 17 2 4 6
18 6 35 1 15 -4 34 -4 42 0 7 5 21 4 31 -1 10 -5 18 -6 18 -2 0 4 20 8 45 8
25 0 45 -2 45 -5 0 -3 14 -5 30 -5 17 0 30 3 30 6 0 7 56 3 69 -6 6 -3 11 -2
11 2 0 9 117 9 126 0 3 -3 18 -2 34 3 18 5 32 4 39 -3 6 -6 11 -7 11 -1 0 5
11 9 25 9 14 0 25 -3 25 -7 0 -4 11 -3 24 2 13 5 27 6 30 3 7 -8 86 -10 86 -2
0 7 56 3 69 -6 6 -3 11 -2 11 2 0 10 53 9 69 -2 6 -3 11 -2 11 2 0 10 53 9 69
-2 6 -3 11 -2 11 2 0 9 117 9 126 0 3 -3 18 -2 34 3 18 5 32 4 39 -3 6 -6 11
-7 11 -1 0 5 11 9 25 9 14 0 25 -3 25 -7 0 -4 11 -3 24 2 13 5 27 6 30 3 7 -8
86 -10 86 -2 0 7 56 3 69 -6 6 -3 11 -3 11 2 0 4 25 8 55 8 30 0 55 -3 55 -7
0 -4 14 -3 30 2 18 5 30 5 30 0 0 -6 10 -6 24 0 13 5 26 6 29 3 6 -5 99 -6
170 0 20 1 37 -1 37 -5 0 -3 14 -3 30 2 18 5 30 5 30 0 0 -6 10 -6 24 0 13 5
26 6 30 3 5 -5 118 -5 166 0 14 2 30 -1 37 -5 6 -5 14 -5 17 1 4 6 18 6 35 1
15 -4 34 -4 42 0 7 5 21 4 31 -1 10 -5 18 -6 18 -2 0 4 20 8 45 8 25 0 45 -2
45 -5 0 -3 14 -5 30 -5 17 0 30 3 30 6 0 7 56 3 69 -6 6 -3 11 -2 11 2 0 9
117 9 126 0 3 -3 18 -2 34 3 18 5 32 4 39 -3 6 -6 11 -7 11 -1 0 5 11 9 25 9
14 0 25 -3 25 -7 0 -4 11 -3 24 2 13 5 27 6 30 3 7 -8 86 -10 86 -2 0 7 56 3
69 -6 6 -3 11 -3 11 2 0 10 91 10 107 0 6 -4 14 -3 17 2 4 6 18 6 35 1 15 -4
34 -4 42 0 7 5 21 4 31 -1 10 -5 18 -6 18 -2 0 4 20 8 45 8 25 0 45 -4 45 -8
0 -5 5 -5 11 -2 15 10 79 12 79 3 0 -3 14 -3 30 2 18 5 30 5 30 0 0 -6 10 -6
24 0 13 5 26 6 29 3 6 -5 99 -6 170 0 20 1 37 -1 37 -5 0 -3 14 -3 30 2 18 5
30 5 30 0 0 -6 10 -6 24 0 13 5 26 6 29 4 7 -7 177 -10 177 -3 0 7 56 3 69 -6
6 -3 11 -2 11 2 0 9 117 9 126 0 3 -3 18 -2 34 3 18 5 32 4 39 -3 6 -6 11 -7
11 -1 0 5 11 9 25 9 14 0 25 -3 25 -7 0 -4 11 -3 24 2 13 5 27 6 30 3 7 -8 86
-10 86 -2 0 7 56 3 69 -6 6 -3 11 -2 11 2 0 10 53 9 69 -2 6 -3 11 -2 11 2 0
10 53 9 69 -2 6 -3 11 -2 11 2 0 9 117 9 126 0 3 -3 18 -2 34 3 18 5 32 4 39
-3 6 -6 11 -7 11 -1 0 5 11 9 25 9 14 0 25 -3 25 -7 0 -4 11 -3 24 2 13 5 27
6 30 3 7 -8 86 -10 86 -2 0 7 56 3 69 -6 6 -3 11 -3 11 2 0 10 91 10 107 0 6
-4 14 -3 17 2 4 6 18 6 35 1 15 -4 34 -4 42 0 7 5 21 4 31 -1 10 -5 18 -6 18
-2 0 4 20 8 45 8 25 0 45 -2 45 -5 0 -3 14 -5 30 -5 17 0 30 3 30 6 0 7 56 3
69 -6 6 -3 11 -2 11 2 0 9 117 9 126 0 3 -3 18 -2 34 3 18 5 32 4 39 -3 6 -6
11 -7 11 -1 0 5 11 9 25 9 14 0 25 -3 25 -7 0 -4 11 -3 24 2 13 5 27 6 30 3 7
-8 86 -10 86 -2 0 7 56 3 69 -6 6 -3 11 -3 11 2 0 10 91 10 107 0 6 -4 14 -3
17 2 4 6 18 6 35 1 15 -4 34 -4 42 0 7 5 21 4 31 -1 10 -5 18 -6 18 -2 0 4 20
8 45 8 25 0 45 -3 45 -7 0 -4 10 -4 23 0 27 9 48 9 64 -1 6 -4 14 -3 17 2 4 6
18 6 35 1 15 -4 34 -4 42 0 7 5 21 4 31 -1 10 -5 18 -6 18 -2 0 4 20 8 45 8
25 0 45 -2 45 -5 0 -3 14 -5 30 -5 17 0 30 3 30 6 0 7 56 3 69 -6 6 -3 11 -3
11 2 0 4 29 8 65 8 36 0 65 -3 65 -7 0 -4 11 -3 25 2 14 5 25 7 25 3 0 -3 9 2
20 12 26 23 26 69 0 93 -19 18 -41 19 -313 20 -364 0 -343 -2 -279 27 56 26
69 55 33 75 -20 10 -27 7 -205 -75 -54 -25 -72 -27 -179 -29 -65 0 -122 1
-126 4 -9 6 -81 139 -81 149 0 4 10 13 23 19 12 6 45 24 72 40 28 16 133 77
235 136 102 59 189 112 195 117 5 5 17 9 26 9 10 0 19 4 21 8 2 5 36 28 76 51
40 23 76 50 79 58 9 22 -37 60 -48 41 -5 -7 -9 -8 -9 -3 0 6 -3 6 -8 -1 -4 -5
-27 -21 -52 -35 -25 -14 -179 -103 -343 -197 -164 -95 -302 -172 -305 -172 -8
0 -52 62 -52 73 0 4 -22 38 -50 77 -27 39 -50 72 -50 75 0 2 57 45 128 94 70
50 132 94 137 98 6 4 36 26 68 48 69 47 82 65 63 91 -13 17 -16 18 -48 3 -18
-9 -53 -32 -78 -50 -25 -19 -81 -59 -125 -89 -44 -30 -81 -58 -83 -62 -2 -4
-10 -8 -18 -8 -8 0 -14 -4 -14 -10 0 -5 -5 -10 -10 -10 -6 0 -21 -9 -32 -20
-12 -11 -25 -19 -29 -18 -4 2 -36 41 -71 87 -34 46 -71 94 -81 107 -22 29 -43
7 198 208 105 88 197 166 207 175 9 9 29 26 45 38 29 22 42 33 126 105 50 43
62 82 28 91 -20 5 -43 -6 -70 -32 -10 -9 -29 -25 -42 -36 -13 -11 -51 -42 -84
-70 -33 -27 -70 -59 -83 -70 -14 -11 -30 -25 -36 -30 -6 -6 -56 -48 -111 -94
-55 -45 -124 -104 -154 -129 -95 -82 -88 -80 -131 -31 -21 24 -61 68 -89 98
-28 30 -51 58 -51 64 0 5 77 87 170 180 95 95 170 178 170 189 0 11 -10 20
-26 24 -24 6 -43 -10 -198 -165 -94 -94 -174 -171 -178 -171 -3 0 -28 21 -55
48 -27 26 -70 66 -96 89 -26 22 -47 45 -47 50 0 4 13 22 28 39 15 18 43 51 64
75 38 46 194 232 257 307 20 24 45 54 56 66 11 12 36 42 55 66 19 23 43 51 53
61 24 27 22 65 -4 72 -15 4 -29 -3 -47 -22 -29 -30 -30 -31 -137 -161 -38 -47
-72 -87 -75 -90 -3 -3 -28 -32 -55 -65 -28 -33 -52 -62 -55 -65 -3 -3 -39 -45
-80 -95 -41 -49 -86 -102 -99 -117 l-24 -27 -46 37 c-25 20 -48 39 -51 42 -3
3 -31 24 -62 48 -56 41 -71 62 -46 62 6 0 9 3 6 6 -4 3 1 14 10 23 31 33 246
349 248 365 3 21 -21 39 -43 32 -17 -6 -84 -96 -226 -305 -32 -47 -61 -88 -63
-90 -4 -5 -52 18 -71 34 -7 6 -19 16 -27 23 -8 6 -17 12 -20 12 -3 0 -32 17
-65 38 l-60 38 18 29 c10 17 29 50 43 75 14 25 57 99 95 165 38 66 76 131 84
145 8 14 18 28 22 31 5 3 8 9 8 13 -1 3 5 16 12 29 29 48 113 193 126 219 11
22 12 30 1 43 -31 38 -48 22 -140 -140 -23 -41 -119 -206 -130 -225 -15 -25
-112 -193 -133 -230 -10 -19 -31 -54 -44 -78 l-25 -43 -42 24 c-22 14 -78 43
-123 66 -81 42 -82 43 -70 69 6 15 14 29 17 32 3 3 6 10 7 16 1 5 25 59 54
120 29 60 54 111 55 114 1 3 5 15 9 28 4 12 12 22 18 22 6 0 8 3 4 6 -3 4 3
24 14 45 l19 39 -21 21 c-27 27 -44 13 -76 -59 -13 -29 -47 -103 -76 -165 -30
-62 -65 -135 -78 -164 l-24 -52 -35 17 c-19 9 -62 28 -95 41 -33 12 -75 30
-92 38 -31 13 -41 31 -26 47 4 3 8 12 9 19 2 7 62 173 134 370 82 224 129 366
125 378 -4 11 -15 19 -29 19 -26 0 -40 -28 -91 -175 -15 -44 -33 -93 -40 -110
-7 -16 -23 -59 -35 -95 -12 -36 -26 -74 -31 -85 -25 -60 -37 -95 -32 -95 3 0
0 -7 -7 -15 -7 -8 -9 -15 -5 -15 4 0 3 -6 -2 -12 -6 -7 -18 -38 -28 -68 -10
-30 -20 -59 -24 -65 -3 -5 -6 -16 -7 -23 -3 -20 -26 -44 -33 -35 -6 9 -206 75
-228 76 -17 0 -17 59 -1 75 7 7 9 12 5 12 -3 0 -2 11 3 25 5 14 12 36 14 48 2
12 9 42 16 67 7 25 14 52 15 60 2 8 4 15 5 15 1 0 3 7 5 15 1 9 12 48 23 88
21 73 21 73 1 93 -11 11 -24 17 -29 14 -16 -10 -37 -56 -45 -100 -5 -22 -9
-42 -10 -45 -15 -50 -28 -98 -30 -110 -2 -8 -4 -15 -5 -15 -1 0 -3 -7 -5 -15
-9 -45 -49 -186 -54 -192 -3 -4 -33 0 -66 8 -72 19 -93 24 -120 28 -11 2 -35
6 -53 10 -33 8 -33 9 -26 49 4 23 8 51 10 62 2 11 6 31 9 45 3 14 8 41 10 60
3 19 9 55 14 80 5 25 12 63 15 85 6 40 11 64 21 115 2 14 7 41 10 60 21 132
37 217 46 233 6 11 6 17 -2 17 -5 0 -7 5 -4 10 9 15 -14 40 -36 40 -21 0 -28
-17 -44 -115 -3 -16 -12 -66 -20 -110 -8 -44 -16 -91 -19 -105 -4 -25 -15 -86
-22 -125 -2 -11 -9 -47 -14 -80 -6 -33 -13 -73 -16 -90 -4 -16 -8 -41 -9 -55
-2 -14 -4 -25 -5 -25 -2 0 -4 -13 -5 -30 -2 -16 -4 -32 -5 -35 -1 -3 -2 -8 -1
-12 2 -16 -20 -59 -27 -54 -10 6 -49 13 -112 20 -25 3 -67 9 -95 12 -134 18
-312 28 -495 28 -127 0 -335 -10 -410 -19 -52 -6 -126 -16 -167 -21 -35 -5
-43 -3 -44 10 -1 9 -2 19 -4 24 -1 4 -5 23 -8 42 -7 34 -11 56 -23 129 -3 18
-8 43 -10 55 -7 36 -23 129 -29 166 -3 19 -9 55 -15 80 -5 25 -19 101 -31 170
-12 69 -27 128 -33 132 -17 12 -32 9 -46 -7z m1125 -889 c93 -7 156 -13 205
-21 19 -3 51 -7 70 -9 19 -3 50 -7 68 -10 17 -3 47 -8 65 -12 17 -3 66 -12
107 -21 41 -9 82 -17 90 -18 8 -1 25 -5 37 -9 12 -4 30 -9 42 -11 27 -5 173
-45 191 -52 8 -3 20 -7 25 -9 59 -15 274 -94 339 -124 25 -11 47 -20 51 -20
13 0 288 -138 385 -193 95 -55 340 -213 386 -250 11 -8 69 -55 129 -103 141
-111 161 -130 330 -299 127 -127 201 -208 259 -283 11 -15 25 -32 31 -38 12
-13 40 -50 94 -124 22 -30 45 -60 51 -67 5 -7 10 -16 10 -22 0 -5 3 -11 8 -13
6 -3 38 -50 137 -208 26 -41 95 -165 95 -171 0 -2 -1575 -4 -3500 -4 -1925 0
-3500 3 -3500 7 0 18 102 192 193 328 61 92 191 266 252 339 43 52 119 137
137 152 10 9 18 19 18 22 0 12 255 255 338 323 13 10 33 27 45 38 12 10 38 30
57 45 19 14 46 36 60 49 14 12 28 22 32 22 3 0 13 6 20 13 36 33 206 145 338
222 114 67 286 155 410 208 36 16 74 33 85 38 79 35 405 145 460 155 21 4 25
4 28 2 1 -1 11 3 22 9 11 6 36 14 55 17 19 3 53 11 75 16 22 6 49 12 60 14 11
2 58 11 105 19 83 16 98 18 210 32 30 3 66 8 80 10 14 2 70 7 125 10 55 4 101
8 102 9 5 4 412 -2 488 -8z"/>
<path d="M4282 8029 c-28 -10 -29 -25 -18 -159 21 -252 30 -308 68 -397 83
-201 252 -332 474 -371 113 -19 294 2 378 43 16 8 35 15 43 15 7 0 13 3 13 8
0 4 16 16 35 26 53 29 147 124 185 189 19 31 39 57 45 58 91 7 148 41 189 112
42 71 54 213 23 260 -22 35 -59 58 -94 61 -38 3 -52 13 -47 34 2 9 5 35 8 57
9 76 46 72 -657 72 -342 0 -633 -4 -645 -8z m238 -92 c0 -5 6 -5 12 -1 17 11
108 11 108 1 0 -5 6 -5 12 -1 17 11 108 11 108 1 0 -5 6 -5 12 -1 17 11 108
11 108 1 0 -5 6 -5 12 -1 17 11 108 11 108 1 0 -5 6 -5 12 -1 17 11 108 11
108 1 0 -5 6 -5 12 -1 17 11 108 11 108 1 0 -5 6 -5 12 -1 15 9 183 9 197 0 5
-4 12 -2 16 4 9 15 25 2 19 -14 -3 -8 -14 -12 -25 -9 -25 7 -25 -16 -1 -48 10
-13 17 -30 16 -36 -1 -7 -2 -20 -3 -28 -1 -12 -6 -10 -22 6 -19 19 -23 20 -37
6 -14 -14 -12 -20 20 -55 29 -32 34 -45 30 -71 -5 -35 -5 -35 -60 17 -18 16
-31 15 -39 -4 -4 -10 10 -32 39 -62 42 -43 45 -49 36 -79 -5 -18 -10 -33 -12
-33 -3 0 -23 19 -46 41 -39 38 -43 40 -58 25 -15 -15 -13 -20 32 -65 48 -48
49 -50 36 -81 l-13 -31 -46 45 c-26 25 -54 46 -64 46 -30 0 -18 -33 29 -81
l47 -47 -21 -27 c-20 -25 -21 -26 -40 -8 -68 65 -80 73 -95 67 -25 -9 -22 -17
29 -69 l46 -48 -32 -20 -31 -20 -48 47 c-41 40 -49 45 -60 32 -15 -18 -5 -39
35 -76 l27 -25 -32 -12 c-30 -13 -33 -12 -72 26 -24 24 -46 38 -54 34 -22 -8
-18 -25 10 -56 14 -15 25 -27 23 -28 -40 -11 -58 -6 -91 26 -48 47 -94 32 -50
-17 15 -17 15 -18 -13 -18 -17 0 -42 11 -58 25 -33 28 -56 32 -56 9 0 -19 -23
-13 -95 23 -67 33 -122 77 -168 132 -38 46 -94 152 -102 189 -9 50 -21 150
-31 262 -3 41 -8 78 -10 82 -2 3 -2 12 1 20 4 9 28 13 85 13 44 0 80 -4 80 -8z
m1114 -186 c7 -33 1 -98 -12 -131 -12 -31 -53 -73 -75 -76 -12 -2 -13 4 -6 30
5 17 12 65 15 106 8 93 15 109 48 103 17 -4 27 -13 30 -32z"/>
<path d="M2995 7607 c-2 -7 -3 -64 -2 -127 l2 -115 38 1 c61 2 67 4 67 14 0 6
-19 10 -41 10 -36 0 -41 3 -36 19 2 10 1 25 -4 32 -11 18 9 39 37 39 14 0 24
6 24 15 0 9 -9 13 -27 12 -26 -2 -28 1 -31 40 -3 42 -3 42 35 45 21 2 38 8 38
13 0 14 -96 16 -100 2z"/>
<path d="M3179 7605 c0 -5 -2 -17 -4 -25 -11 -43 -16 -68 -21 -100 -3 -19 -9
-52 -14 -72 -6 -28 -4 -38 6 -42 12 -5 19 12 15 37 0 4 2 7 7 8 4 0 19 2 34 4
23 3 28 -1 33 -25 4 -19 11 -27 20 -24 8 4 11 14 8 27 -3 12 -6 37 -7 54 0 18
-4 33 -7 33 -3 0 -6 6 -6 13 -2 23 -10 72 -18 99 -4 18 -13 26 -26 25 -10 -1
-19 -6 -20 -12z m38 -113 l10 -53 -26 3 c-15 2 -25 9 -23 16 8 40 11 60 11 82
1 38 17 11 28 -48z"/>
<path d="M3340 7613 c-45 -18 -41 -74 11 -130 45 -49 50 -86 12 -91 -17 -3
-24 3 -29 22 -9 36 -33 34 -26 -1 7 -37 22 -50 56 -48 66 2 70 73 8 140 -43
46 -49 78 -14 83 17 3 25 -2 29 -17 6 -23 33 -29 33 -8 0 7 -7 23 -16 35 -15
22 -34 26 -64 15z"/>
<path d="M3455 7611 c-12 -11 -3 -21 18 -21 23 0 24 -1 22 -102 -1 -115 1
-129 19 -122 9 3 12 36 12 112 -1 103 0 107 22 110 12 2 22 9 22 16 0 9 -17
13 -55 13 -31 -1 -58 -3 -60 -6z"/>
<path d="M6340 7606 c-16 -20 -25 -80 -11 -71 6 3 18 20 26 36 13 25 19 28 35
19 31 -17 15 -74 -36 -129 -25 -26 -25 -29 -28 -71 -1 -23 2 -24 47 -25 28 -1
52 4 59 12 12 15 5 16 -49 13 -43 -2 -42 11 8 78 47 62 56 115 24 138 -24 18
-59 18 -75 0z"/>
<path d="M6481 7601 c-17 -17 -19 -33 -18 -115 1 -52 7 -100 13 -106 21 -21
63 -21 83 -1 16 16 19 33 19 115 -1 87 -3 98 -22 111 -28 20 -52 19 -75 -4z
m63 -27 c9 -24 7 -157 -3 -172 -5 -8 -17 -12 -27 -10 -17 3 -19 14 -22 87 -2
47 -1 90 2 98 7 18 43 16 50 -3z"/>
<path d="M6664 7606 c-3 -8 -15 -18 -26 -22 -20 -6 -16 -19 5 -19 8 0 12 -30
12 -98 0 -53 3 -97 8 -97 4 0 10 0 15 0 10 0 12 239 1 246 -5 3 -12 -2 -15
-10z"/>
<path d="M6752 7601 c-20 -16 -22 -29 -22 -107 0 -121 12 -137 92 -125 14 2
27 70 25 138 -3 103 -41 141 -95 94z m64 -109 c2 -84 -4 -101 -32 -102 -15 0
-30 39 -27 75 1 17 2 49 3 73 2 27 8 46 19 52 27 15 36 -7 37 -98z"/>
<path d="M3139 6065 c-3 -2 -30 -7 -61 -9 -31 -3 -73 -8 -94 -12 -49 -10 -44
-9 -77 -22 -16 -7 -30 -12 -33 -12 -9 0 -109 -68 -129 -87 -64 -63 -126 -173
-139 -245 -3 -13 -5 -23 -6 -23 -3 0 -10 -40 -17 -100 -9 -75 -8 -1399 1
-1480 18 -166 67 -275 167 -374 46 -45 159 -104 219 -115 19 -3 46 -8 60 -11
53 -11 198 -6 265 9 222 52 356 212 392 466 9 62 9 1452 0 1520 -14 110 -17
122 -66 221 -35 73 -111 157 -175 194 -61 35 -166 66 -233 68 -32 1 -61 5 -64
10 -3 4 -8 5 -10 2z m96 -270 c89 -30 140 -87 171 -191 16 -53 18 -125 19
-764 1 -742 -2 -808 -44 -886 -29 -54 -40 -67 -86 -96 -83 -52 -203 -57 -295
-10 -82 41 -123 103 -147 222 -7 36 -7 1415 0 1477 19 158 120 257 270 262 39
1 85 -4 112 -14z"/>
<path d="M1698 6055 c-2 -2 -16 -6 -33 -8 -57 -11 -106 -28 -158 -57 -55 -30
-143 -113 -153 -142 -3 -10 -10 -18 -15 -18 -5 0 -9 -5 -9 -11 0 -5 -9 -30
-20 -54 -56 -123 -55 -105 -55 -950 0 -878 -2 -846 76 -994 89 -167 247 -252
468 -252 181 1 297 44 400 151 46 47 106 152 115 200 2 14 7 32 10 40 15 41
19 92 23 300 l5 226 -129 -1 -128 0 -2 -80 c-1 -44 -2 -138 -3 -208 -3 -171
-27 -252 -94 -315 -58 -54 -159 -76 -265 -58 -55 9 -121 54 -152 105 -16 25
-29 48 -28 51 0 3 -4 17 -10 32 -10 26 -24 126 -22 158 4 79 1 291 -4 300 -3
5 -2 10 4 10 6 0 7 11 2 28 -5 15 -5 36 -1 47 4 11 4 34 -1 52 -4 18 -3 33 1
33 5 0 5 12 1 28 -4 15 -6 38 -4 52 6 49 5 138 -1 148 -3 6 -2 13 3 17 6 3 7
15 3 28 -5 12 -7 33 -5 47 2 14 3 35 3 48 0 12 0 28 0 35 0 6 1 40 2 74 2 33
0 59 -4 56 -5 -2 -4 6 1 19 4 13 5 32 1 43 -4 11 -5 33 -3 50 3 16 4 36 4 43
-4 73 1 192 10 239 6 29 11 56 11 60 1 15 38 78 62 105 81 89 270 104 373 28
47 -35 89 -109 103 -181 6 -30 11 -122 11 -204 l0 -151 125 1 c82 0 127 4 132
12 8 12 -3 329 -13 383 -9 49 -36 133 -48 148 -5 6 -7 12 -3 12 11 0 -52 94
-88 132 -60 63 -166 119 -254 134 -39 7 -239 14 -244 9z"/>
<path d="M3961 6030 c-4 -3 -7 -552 -6 -1220 l0 -1215 135 0 135 0 2 525 1
525 281 3 282 2 -3 123 -3 122 -272 1 c-150 0 -276 3 -279 6 -3 4 -6 202 -7
442 -2 381 0 436 13 437 8 1 159 3 335 4 176 2 327 3 336 4 14 1 16 18 15 121
0 66 -3 121 -6 121 -18 4 -953 3 -959 -1z"/>
<path d="M5145 6030 c-2 -3 -3 -310 -3 -682 0 -372 -3 -681 -7 -687 -3 -6 -3
-11 2 -11 10 0 9 -102 -1 -118 -4 -7 -4 -12 1 -12 10 0 10 -91 -1 -108 -4 -6
-4 -12 1 -12 10 0 10 -91 -1 -108 -4 -6 -4 -12 1 -12 10 0 10 -91 -1 -108 -4
-6 -4 -12 1 -12 10 0 10 -91 -1 -108 -4 -6 -4 -12 1 -12 10 0 10 -91 -1 -108
-4 -6 -4 -12 1 -12 10 0 10 -91 -1 -108 -4 -6 -4 -12 1 -12 10 0 10 -91 -1
-108 -4 -6 -4 -12 1 -12 4 0 7 -20 7 -45 l-2 -44 134 0 c93 1 134 4 135 12 1
7 3 239 4 517 1 278 3 511 4 518 1 9 64 12 279 12 l278 0 0 120 c0 77 -3 121
-10 122 -6 1 -128 2 -271 4 -143 1 -265 2 -270 3 -7 1 -10 152 -9 439 1 240 2
440 3 443 0 3 152 5 337 5 185 -1 340 2 346 5 12 7 14 226 3 237 -8 8 -955 10
-960 2z"/>
<path d="M6329 6015 c0 -26 0 -2361 0 -2397 l1 -28 500 1 500 1 1 21 c4 75 1
218 -4 223 -8 8 -174 7 -188 -1 -5 -4 -9 -3 -9 2 0 7 -104 7 -170 0 -14 -2
-37 0 -52 4 -17 5 -28 4 -28 -2 0 -6 -5 -7 -11 -3 -13 8 -128 9 -135 1 -3 -3
-18 -2 -33 3 -15 4 -34 4 -42 0 -8 -4 -24 -4 -36 1 l-22 8 0 429 1 429 288 0
c158 0 292 3 298 6 5 4 9 58 9 121 0 97 -3 115 -16 118 -9 2 -143 3 -298 3
l-282 -1 2 415 2 416 357 0 c196 1 360 4 364 8 12 11 11 237 -1 238 -5 1 -232
2 -502 3 -487 1 -493 1 -494 -19z"/>
<path d="M7591 6030 c-6 -4 -8 -2406 -3 -2432 1 -3 227 -7 502 -7 l500 0 0
124 0 124 -44 -1 c-24 0 -49 3 -55 6 -6 4 -11 2 -11 -4 0 -6 -5 -8 -11 -4 -11
6 -75 7 -172 2 -26 -2 -47 -1 -47 2 0 6 -116 2 -142 -4 -10 -2 -18 -1 -18 2 0
4 -17 6 -37 5 -75 -4 -89 -4 -140 -3 -33 1 -53 6 -54 13 -1 7 -2 198 -3 425
-1 266 3 417 9 422 6 5 136 8 291 8 155 -1 285 1 290 5 7 4 11 178 5 232 -1 6
-101 9 -283 9 -156 -1 -290 0 -298 2 -13 3 -15 58 -15 414 0 266 4 410 10 411
6 1 165 3 355 4 190 2 351 3 358 4 9 1 12 32 12 121 0 89 -3 120 -12 121 -41
4 -981 3 -987 -1z"/>
<path d="M172 4886 l-52 -54 57 -57 56 -56 54 53 c29 29 53 56 53 61 0 9 -100
107 -109 107 -3 0 -30 -24 -59 -54z"/>
<path d="M9551 4888 c-28 -28 -51 -54 -51 -58 0 -3 24 -29 53 -58 l54 -53 56
56 56 56 -51 55 c-29 30 -55 54 -59 54 -4 0 -30 -23 -58 -52z"/>
<path d="M271 3117 c-22 -5 -31 -15 -36 -38 -9 -39 11 -79 39 -80 12 0 234 -1
494 -2 l472 -2 30 -55 c16 -30 29 -60 30 -65 0 -6 -30 -28 -67 -48 -38 -21
-86 -48 -108 -62 -22 -14 -47 -28 -55 -32 -8 -3 -39 -21 -68 -40 -29 -18 -54
-33 -57 -33 -2 0 -54 -29 -116 -65 -61 -36 -115 -65 -120 -65 -15 0 -40 -47
-33 -64 10 -27 43 -18 141 39 52 30 98 55 104 55 5 0 9 4 9 9 0 5 12 14 28 20
15 6 48 23 74 38 25 16 106 62 179 104 l133 77 13 -25 c7 -13 21 -36 33 -50
11 -14 20 -29 20 -34 0 -5 20 -36 44 -70 l43 -63 -27 -23 c-15 -13 -33 -23
-39 -23 -6 0 -11 -4 -11 -8 0 -4 -30 -28 -67 -52 -92 -59 -156 -108 -166 -126
-10 -18 9 -44 32 -44 10 0 31 10 48 23 17 12 39 28 50 35 46 32 159 112 169
120 5 5 21 15 33 22 19 10 25 10 32 -1 16 -27 35 -52 97 -131 34 -44 62 -83
62 -88 0 -4 -10 -14 -22 -23 -13 -8 -34 -25 -48 -37 -60 -52 -83 -72 -225
-190 -83 -68 -155 -129 -161 -135 -6 -5 -29 -25 -52 -44 -44 -35 -52 -60 -28
-80 20 -16 50 0 120 64 24 22 371 312 418 349 l49 40 36 -40 c20 -21 62 -68
95 -103 32 -35 58 -66 58 -70 0 -3 -58 -65 -130 -136 -71 -71 -130 -137 -130
-147 0 -10 9 -22 21 -28 19 -11 34 2 158 124 l138 137 34 -33 c20 -18 68 -63
108 -99 l72 -67 -23 -25 c-13 -14 -33 -39 -45 -55 -12 -16 -33 -40 -45 -53
-13 -14 -49 -56 -80 -95 -31 -38 -69 -83 -85 -101 -15 -17 -35 -40 -43 -50
-65 -80 -116 -140 -128 -150 -18 -15 -12 -53 11 -67 18 -11 41 9 128 117 29
35 96 114 136 162 23 27 212 254 220 265 6 7 41 -17 142 -95 50 -38 91 -73 91
-77 0 -5 -12 -26 -28 -47 -15 -21 -33 -47 -40 -57 -7 -11 -35 -50 -63 -89 -71
-99 -83 -123 -68 -141 26 -32 47 -14 143 122 53 74 96 138 96 141 0 3 8 11 17
18 14 10 25 7 65 -21 26 -19 50 -34 52 -34 4 0 118 -73 134 -85 2 -2 -6 -18
-17 -36 -11 -19 -44 -77 -74 -129 -30 -52 -103 -178 -161 -279 -58 -101 -106
-188 -106 -192 0 -19 32 -39 48 -30 14 7 100 151 310 516 12 22 25 48 29 58 3
9 9 17 13 17 5 0 12 9 15 20 5 17 9 18 28 8 12 -7 25 -12 29 -13 3 0 10 -3 14
-7 4 -5 49 -28 101 -53 51 -25 93 -47 93 -50 0 -3 -4 -13 -10 -23 -9 -17 -72
-152 -75 -162 -6 -17 -28 -66 -50 -109 -25 -51 -25 -51 -5 -71 28 -28 42 -18
75 53 15 34 45 96 65 137 21 41 37 77 38 80 2 19 28 60 38 60 8 0 37 -11 66
-24 29 -13 85 -36 124 -51 l71 -27 -44 -121 c-24 -67 -47 -129 -50 -137 -3 -8
-7 -17 -7 -20 -1 -6 -29 -81 -98 -268 -53 -144 -55 -175 -11 -170 22 3 30 14
56 83 16 44 33 89 37 100 15 36 142 390 144 400 2 6 10 27 19 49 9 21 17 42
17 47 0 13 16 11 57 -6 20 -8 38 -13 40 -11 3 3 25 -4 49 -14 24 -11 48 -20
52 -20 26 -2 82 -22 82 -30 0 -5 -4 -20 -9 -33 -5 -13 -12 -37 -15 -53 -3 -16
-17 -69 -31 -119 -44 -155 -45 -162 -25 -180 16 -14 19 -14 38 2 12 10 24 29
26 43 9 45 84 321 89 326 3 3 25 0 48 -6 24 -7 53 -14 64 -16 11 -2 45 -9 75
-15 30 -6 62 -12 70 -14 8 -1 16 -10 18 -21 1 -10 -15 -118 -37 -238 -22 -121
-38 -223 -35 -228 3 -4 0 -8 -6 -8 -6 0 -9 -4 -6 -8 3 -4 1 -26 -5 -48 -5 -21
-11 -58 -14 -80 -3 -23 -8 -53 -10 -65 -7 -34 3 -59 23 -59 27 0 41 13 46 45
3 17 8 46 11 65 6 33 40 227 89 500 25 141 13 130 126 115 63 -8 128 -16 150
-17 18 -1 41 -18 36 -27 -4 -6 -12 -77 -21 -181 -17 -200 -16 -213 23 -207 34
5 30 -10 47 182 3 33 8 94 11 135 3 41 8 78 10 82 5 7 276 -1 284 -8 2 -3 5
-172 5 -375 0 -392 0 -394 46 -382 10 3 20 8 20 12 1 3 2 171 3 373 1 202 4
369 7 372 3 3 57 8 120 12 63 3 125 6 139 7 20 2 25 -3 26 -23 1 -14 4 -50 8
-80 3 -30 9 -86 11 -125 12 -162 18 -185 44 -185 10 0 24 7 31 15 12 14 11 23
-6 185 -2 25 -6 74 -9 110 -2 36 -7 75 -9 88 -3 12 -2 23 2 23 4 1 16 3 27 4
95 12 135 17 165 23 65 13 95 9 96 -13 1 -11 5 -32 8 -47 8 -36 15 -78 32
-178 3 -14 9 -49 15 -79 6 -30 12 -64 14 -75 1 -12 5 -34 8 -51 4 -16 9 -46
11 -65 3 -19 7 -44 9 -55 2 -11 7 -36 11 -55 11 -63 15 -81 21 -101 8 -24 52
-26 59 -1 5 17 1 70 -8 101 -3 9 -8 38 -11 65 -4 28 -8 53 -11 57 -2 4 -6 27
-9 50 -3 24 -8 58 -12 74 -3 17 -8 41 -10 55 -2 14 -6 36 -8 50 -4 29 -43 245
-49 276 -4 19 1 23 42 30 56 9 48 7 147 33 44 11 83 17 87 13 3 -4 18 -52 33
-107 15 -55 33 -125 41 -155 8 -30 17 -62 19 -70 2 -8 5 -22 7 -30 1 -8 12
-20 23 -27 16 -9 23 -8 37 3 15 14 14 25 -19 147 -19 73 -36 139 -38 148 -2 8
-10 38 -18 67 l-16 51 32 10 c18 6 35 11 39 11 4 1 51 16 103 35 l95 34 14
-21 c9 -12 13 -25 10 -29 -2 -4 0 -10 6 -14 5 -3 10 -17 10 -31 0 -13 4 -24 8
-24 5 0 9 -6 9 -12 0 -7 21 -67 45 -133 25 -66 53 -145 63 -175 10 -30 20 -59
24 -65 3 -5 6 -13 7 -17 1 -5 3 -10 4 -13 1 -3 3 -8 5 -12 1 -5 5 -15 8 -23 3
-8 17 -44 30 -80 20 -54 28 -65 47 -65 46 0 45 23 -13 180 -90 243 -178 489
-180 500 -1 6 -5 12 -9 15 -3 3 -8 14 -10 24 -2 16 19 29 127 76 l130 58 37
-77 c20 -42 62 -128 92 -192 51 -108 57 -116 80 -112 36 7 36 37 1 108 -16 33
-43 90 -59 125 -16 36 -42 90 -57 122 l-28 56 64 34 c94 48 121 63 149 81 14
10 29 17 34 17 7 0 83 -122 149 -240 11 -19 31 -54 44 -76 13 -23 62 -108 109
-189 46 -80 92 -151 101 -156 24 -13 52 16 43 44 -4 11 -33 65 -65 119 -33 54
-59 100 -59 102 0 2 -18 34 -40 70 -22 36 -40 70 -40 75 0 5 -3 11 -7 13 -5 2
-15 17 -24 33 -9 17 -44 79 -78 138 -35 60 -61 110 -60 111 2 2 56 37 120 79
85 54 120 72 128 64 6 -6 11 -16 11 -23 0 -7 4 -14 8 -16 4 -1 54 -69 111
-151 105 -151 128 -170 151 -127 9 18 4 31 -36 88 -26 37 -72 103 -102 147
-31 44 -64 91 -74 104 -10 13 -18 27 -18 30 0 4 24 25 53 46 28 22 54 42 57
45 3 3 28 24 57 48 l52 42 83 -99 c46 -54 99 -117 118 -141 19 -23 42 -50 50
-60 8 -9 31 -36 50 -59 19 -23 44 -52 55 -65 11 -12 49 -57 85 -99 66 -79 77
-86 98 -65 24 24 9 57 -63 132 -11 12 -38 44 -60 71 -21 28 -42 52 -45 55 -3
3 -39 46 -80 95 -41 50 -77 92 -80 95 -28 28 -150 181 -150 189 0 5 10 17 21
25 12 8 57 50 101 92 l79 78 157 -156 c139 -139 160 -155 180 -147 12 4 22 17
22 27 0 10 -66 83 -150 167 -82 82 -150 153 -150 160 0 6 22 34 50 63 27 28
67 74 89 102 l40 50 33 -27 c18 -15 35 -30 38 -33 3 -3 38 -32 78 -64 39 -32
72 -62 72 -67 0 -5 5 -9 12 -9 6 0 18 -7 27 -15 26 -24 75 -67 126 -110 27
-22 87 -72 134 -112 47 -40 91 -72 98 -73 6 0 19 7 27 15 24 24 8 41 -174 193
-91 75 -170 141 -176 147 -6 5 -30 26 -53 45 -24 19 -48 40 -54 45 -7 6 -40
34 -74 64 -71 61 -71 67 4 146 7 8 13 18 13 24 0 6 4 11 8 11 4 0 15 12 25 27
9 16 25 39 35 52 l19 23 40 -28 c22 -16 49 -35 59 -41 11 -7 73 -51 139 -98
122 -86 144 -96 164 -71 18 22 2 44 -63 88 -33 23 -62 45 -64 50 -2 4 -9 8
-15 8 -7 0 -25 11 -40 25 -15 14 -27 23 -27 20 0 -4 -7 0 -15 8 -8 8 -31 25
-52 38 -21 13 -48 33 -61 44 l-23 21 70 114 c39 62 73 115 75 117 5 5 71 -30
133 -70 24 -15 45 -27 47 -27 3 0 54 -29 113 -63 301 -177 391 -227 410 -227
25 0 40 34 23 55 -6 7 -25 20 -43 29 -18 9 -39 21 -47 26 -53 34 -293 170
-300 170 -6 0 -10 5 -10 10 0 6 -4 10 -10 10 -5 0 -33 14 -62 31 -56 34 -95
56 -155 90 -64 36 -64 36 -38 82 l23 42 519 2 c285 1 523 2 528 2 41 4 59 76
26 106 -19 16 -233 17 -4655 19 -2550 0 -4649 -2 -4665 -7z m8104 -135 c-11
-29 -120 -209 -188 -312 -321 -481 -726 -874 -1212 -1177 -124 -77 -405 -229
-405 -218 0 3 -10 -1 -22 -9 -22 -13 -231 -105 -253 -111 -5 -1 -17 -5 -25 -8
-58 -25 -319 -104 -435 -132 -126 -31 -165 -39 -230 -50 -11 -2 -31 -6 -45 -8
-26 -6 -108 -18 -150 -23 -14 -2 -43 -5 -65 -8 -49 -7 -148 -15 -235 -21 -74
-5 -380 -5 -455 0 -85 5 -199 15 -220 19 -11 2 -51 7 -90 11 -38 4 -72 8 -75
10 -3 1 -27 6 -55 9 -27 4 -58 9 -68 12 -21 6 -38 10 -107 19 -24 4 -49 9 -55
13 -5 4 -21 8 -35 10 -33 4 -186 47 -285 80 -44 14 -82 27 -85 27 -19 3 -87
29 -97 38 -7 5 -13 7 -13 4 0 -10 -114 39 -310 131 -128 60 -375 196 -398 218
-6 7 -21 16 -32 19 -11 3 -20 11 -20 16 0 5 -5 9 -10 9 -15 0 -204 133 -296
209 -17 14 -42 35 -55 45 -144 115 -415 384 -519 516 -14 18 -30 37 -36 44
-31 33 -170 225 -229 316 -38 58 -76 116 -85 130 -21 31 -100 175 -100 182 0
2 1575 5 3500 5 3068 0 3500 -2 3495 -15z"/>
<path d="M4828 2635 c-53 -19 -88 -43 -135 -94 -211 -226 -153 -650 107 -787
52 -27 172 -29 229 -4 142 64 238 225 245 414 9 200 -85 385 -230 457 -57 28
-158 35 -216 14z m191 -80 c46 -24 118 -101 133 -141 7 -19 16 -34 21 -34 4 0
5 -5 2 -10 -4 -6 -2 -16 3 -23 13 -15 25 -87 25 -152 2 -226 -136 -408 -298
-392 -64 6 -104 26 -157 79 -180 180 -131 584 83 676 54 24 139 22 188 -3z"/>
<path d="M4903 2502 c-27 -4 -33 -29 -14 -66 25 -52 26 -155 1 -230 -28 -86
-34 -119 -32 -186 2 -78 11 -116 32 -135 15 -14 21 -14 39 -3 15 9 20 19 16
33 -3 11 -9 55 -12 97 -5 68 -2 88 21 158 27 80 40 186 24 196 -4 3 -6 9 -3
14 7 11 -23 100 -38 114 -7 6 -22 10 -34 8z"/>
<path d="M4095 1413 c-5 -21 -10 -45 -11 -53 -2 -9 -10 -45 -18 -80 -10 -43
-12 -68 -5 -75 11 -11 29 10 29 37 0 9 4 28 10 42 8 22 13 24 34 16 18 -7 26
-5 30 5 3 10 -5 16 -29 21 -23 4 -32 10 -28 18 4 6 9 22 11 36 5 36 14 41 51
30 27 -8 32 -6 29 7 -2 9 -10 17 -18 19 -8 1 -29 6 -46 9 -30 7 -32 5 -39 -32z"/>
<path d="M5659 1446 c-2 -2 -18 -6 -36 -9 -56 -9 -76 -35 -26 -33 15 1 28 -3
28 -9 2 -29 39 -191 47 -200 22 -25 24 18 3 110 -16 69 -20 104 -13 112 6 7
14 10 19 7 5 -3 9 2 9 10 0 14 -20 22 -31 12z"/>
<path d="M4239 1408 c0 -7 -2 -20 -4 -28 -2 -8 -6 -32 -10 -54 -4 -21 -9 -48
-11 -60 -15 -75 -15 -84 -4 -91 15 -9 20 -4 22 28 1 15 6 27 10 27 4 0 5 7 1
16 -8 22 16 35 39 21 15 -10 17 -20 12 -58 -5 -37 -3 -47 10 -52 9 -4 16 -1
17 6 0 7 3 32 5 56 4 30 1 47 -8 53 -10 7 -10 11 4 22 21 16 30 79 15 100 -16
21 -97 33 -98 14z m67 -26 c16 -11 9 -63 -11 -78 -28 -21 -44 -7 -39 33 6 52
21 65 50 45z"/>
<path d="M5473 1410 c-19 -8 -39 -32 -42 -53 -3 -15 30 -67 42 -67 16 -1 52
-31 66 -57 9 -17 8 -25 -4 -37 -19 -18 -42 -11 -50 15 -8 24 -37 25 -33 2 9
-51 71 -70 107 -34 35 35 11 88 -56 126 -35 20 -48 52 -31 72 16 19 36 16 43
-7 7 -22 35 -28 35 -7 0 14 -37 57 -48 56 -4 0 -17 -4 -29 -9z"/>
<path d="M4399 1396 c0 -1 -2 -17 -4 -36 -2 -19 -6 -53 -9 -75 -3 -22 -8 -63
-11 -91 l-6 -50 38 -1 c21 -1 44 -3 52 -4 7 -2 16 2 18 9 3 6 -2 13 -11 13 -9
1 -20 3 -26 4 -5 1 -16 3 -23 4 -9 1 -13 13 -13 34 2 45 10 54 46 51 17 -1 30
2 28 8 -2 5 -8 10 -13 10 -6 0 -16 4 -22 10 -7 6 -13 7 -13 2 0 -5 -4 -3 -9 5
-5 8 -6 24 -1 35 4 12 9 26 11 31 2 6 21 9 41 7 30 -2 36 0 32 13 -4 8 -11 15
-18 16 -43 3 -86 5 -87 5z"/>
<path d="M5304 1378 c-4 -6 -9 -36 -10 -67 -3 -64 -11 -139 -16 -161 -1 -8 3
-15 11 -15 8 0 15 9 17 19 6 42 68 50 81 11 6 -18 12 -22 22 -16 12 8 10 22
-13 88 -15 43 -31 87 -36 98 -4 11 -11 28 -14 38 -6 19 -31 23 -42 5z m45 -98
c12 -30 21 -57 21 -60 0 -3 -13 -7 -29 -8 -28 -2 -29 0 -26 30 2 18 4 48 4 67
1 42 4 40 30 -29z"/>
<path d="M4556 1361 c-25 -28 -17 -73 19 -111 38 -41 46 -59 33 -82 -8 -18
-47 -25 -49 -10 -4 45 -16 63 -28 43 -20 -32 14 -80 53 -76 12 1 26 3 32 4 6
0 16 12 22 26 15 32 -2 78 -42 114 -16 15 -26 35 -26 53 0 23 4 28 25 28 18 0
26 -7 31 -25 7 -27 19 -33 27 -12 5 14 -9 56 -20 59 -35 7 -65 2 -77 -11z"/>
<path d="M5134 1370 c-28 -11 -31 -28 -27 -130 4 -109 19 -125 105 -111 18 3
24 64 13 151 -2 14 -4 32 -4 41 -2 40 -45 64 -87 49z m51 -29 c3 -6 8 -40 11
-76 2 -37 5 -70 5 -73 4 -30 -3 -42 -26 -42 -14 0 -28 6 -30 13 -7 19 -13 175
-7 182 9 8 40 6 47 -4z"/>
<path d="M4699 1358 c0 -7 -2 -58 -5 -113 -2 -55 -6 -105 -8 -112 -3 -6 1 -14
9 -17 16 -6 23 13 27 72 2 41 3 43 32 40 31 -3 31 -3 29 -61 -1 -49 1 -58 15
-55 15 3 17 20 17 126 0 74 -4 122 -10 122 -5 0 -11 -24 -13 -54 -3 -53 -3
-54 -35 -52 l-32 2 1 57 c1 42 -2 57 -12 57 -8 0 -14 -6 -15 -12z"/>
<path d="M4946 1361 c-7 -12 -1 -240 7 -247 14 -14 25 17 22 62 -3 41 -2 44
21 44 26 0 34 -12 38 -57 2 -33 14 -55 26 -48 11 7 2 95 -11 111 -6 8 -7 19
-2 26 13 22 10 88 -5 100 -15 13 -90 20 -96 9z m72 -30 c8 -5 12 -22 10 -42
-2 -28 -7 -35 -29 -37 -25 -3 -26 -1 -27 42 -1 47 13 59 46 37z"/>
</g>
</svg>
